<?xml version="1.0" encoding="utf-8"?>
<!-- Generator: Adobe Illustrator 26.0.0, SVG Export Plug-In . SVG Version: 6.00 Build 0)  -->
<svg version="1.1" id="Capa_1" xmlns="http://www.w3.org/2000/svg" xmlns:xlink="http://www.w3.org/1999/xlink" x="0px" y="0px"
	 viewBox="0 0 78 35" style="enable-background:new 0 0 78 35;" xml:space="preserve">
<style type="text/css">
	.st0{fill:#E91C2E;}
	.st1{fill:#F1192F;}
	.st2{fill:#FEB901;}
</style>
<g id="Layer_1">
</g>
<path class="st0" d="M-267.2,186.5c0.1,0,0.2,0,0.4,0C-267,186.5-267.1,186.5-267.2,186.5z"/>
<g>
	<path class="st1" d="M8.7,15.8c0.6-0.2,1.1-0.6,1.7-0.6c0.1,0,0.2,0,0.3,0c0.5,0,1,0.1,1.3-0.6c0.1-0.3,0.6-0.4,0.9-0.5
		c3.2-0.9,6.3,0.6,7.5,3.8c0.8,2.2,0.7,4.6,0.2,6.8c-0.6,2.7-1.4,4.2-3.5,7c0.4,0.1,0.8,0,1.2-0.1c0.4-0.1,0.8-0.3,1.3-0.3
		c0.9,0,1.4,0.7,1.1,1.5c-0.6,1.2-1.6,2-2.9,2.3c-1.4,0.2-2.6-0.1-3.6-1.1c-0.1-0.1-0.2-0.2-0.4-0.1c-1.4,0.4-2.8,0.2-4.1-0.3
		c0,0,0,0,0,0c0,0-0.1-0.1-0.1-0.1c-2.2-1.3-3.2-3.5-3.6-5.9c-0.5-3.1-0.3-6.1,1-9c0.4-0.9,0.9-1.7,1.7-2.4
		C8.6,16,8.7,15.9,8.7,15.8z M14.8,27.4c0.1,0,0.1-0.1,0.2-0.2c1.5-2.6,2-5.4,1.8-8.3c-0.1-1.5-0.9-2.3-2.4-2.6
		c-0.3-0.1-0.7-0.1-1.1-0.1c-0.3,0-0.5,0-0.6,0.4c0,0.2-0.2,0.3-0.3,0.5c-0.5,0.4-0.9,1-1.2,1.6c-0.8,1.9-1.3,3.9-1.4,5.9
		c0,1.4,0.1,2.8,0.6,4.1c0.2,0.5,0.4,0.9,0.9,1.2c0.2,0.1,0.5,0.2,0.7,0.1c0.2-0.1-0.1-0.4-0.1-0.5c0-0.1,0-0.1,0-0.2
		c-0.2-1-0.3-2,0.1-3c0.2-0.7,0.7-1,1.3-1c0.6,0,1,0.4,1.2,1.1C14.6,26.6,14.7,27,14.8,27.4z"/>
	<path class="st1" d="M48.3,17.3c0.5-0.6,0.9-1.3,1.3-2.1c0.1-0.2,0.2-0.5,0.4-0.8c-0.5,0-0.9,0-1.2,0.1c-1.4,0.1-2.8,0.2-4.2,0
		c-0.4-0.1-0.8-0.2-1.1-0.5c-0.3-0.7-0.2-1.1,0.4-1.5c0.2-0.2,0.5-0.3,0.8-0.4c1.4-0.5,2.9-0.8,4.4-1.1c0.6,0,1.2-0.1,1.9-0.1
		c0.4,0,0.9,0,1.3,0.1c1,0.3,1.6,1.2,1.5,2.2c0,0.3-0.1,0.6-0.1,0.9c-0.1,0.4-0.2,0.7-0.3,1.1c-0.5,1.5-1.2,2.9-2,4.3
		c-1.8,2.9-3.9,5.7-5.6,8.7c0.2,0.1,0.3,0,0.4,0c2-0.5,3.9-1.4,5.8-2.1c0.4-0.1,0.4-0.3,0.3-0.6c-0.4-0.9-0.4-1.8,0-2.8
		c0.2-0.4,0.3-0.4,0.6-0.1c0.2,0.3,0.3,0.6,0.4,0.9c0.4,1.2,0.9,2.3,1.8,3.2c0.9,0.9,1.9,1.5,3.2,1.6c0.1,0,0.2,0.1,0.4,0.1
		c1.9,0.2,3.5-0.4,5-1.5c0.5-0.4,1.1-0.8,1.4-1.4c0.9-0.9,1.5-2,2-3.2c0.6-1.5,1.1-3.1,1.4-4.7c0.1-0.3,0.2-0.6,0.3-1
		c0.1-0.3,0.4-0.4,0.7-0.1c0.2,0.2,0.3,0.4,0.4,0.7c0.5,2.2-0.1,4.2-1,6.1c-1,2.2-2.6,4.1-4.7,5.4c-1.4,0.8-2.9,1.3-4.5,1.4
		c-0.7,0-1.4-0.1-2.1-0.2c-1.3-0.4-2.5-1-3.5-2c-0.1-0.1-0.2-0.2-0.3-0.1c-1,1-2.2,1.4-3.4,2c-1.4,0.8-3,1.4-4.6,1.7
		c-0.7,0.1-1.4,0.1-2.1-0.1c-1.2-0.4-1.8-1.4-1.8-2.8c0.1-1.3,0.6-2.5,1.2-3.6c0.3-0.6,0.6-1.1,0.9-1.7c0.5-0.8,1-1.6,1.6-2.3
		C46.4,20,47.3,18.6,48.3,17.3z"/>
	<path class="st1" d="M31.5,17.1c-0.1,2.7-0.2,5.3,0,8c0,0.3,0.1,0.7,0.2,1c0,0.2,0,0.4,0.1,0.6c0.1,0.6,0.2,1.1,0.2,1.7
		c-0.1,1.1-0.8,1.5-1.8,0.9c-0.8-0.5-1.2-1.2-1.5-2c-0.1-0.3-0.2-0.4-0.5-0.1c-0.2,0.3-0.4,0.5-0.6,0.7c-0.5,0.3-0.9,0.6-1.5,0.7
		c-1.1,0.1-2-0.3-2.6-1.3c-0.6-1-0.9-2-1-3.1c-0.3-2.4-0.1-4.8,0.4-7.1c0.1-0.4,0.2-0.8,0.5-1.1c0.3-0.4,0.8-0.6,1.3-0.5
		c0.5,0.1,0.6,0.5,0.7,1c0.1,0.7-0.1,1.4-0.2,2.1c-0.3,2.1-0.1,4.2,0.3,6.3c0,0.2,0.1,0.5,0.3,0.7c0.2-0.2,0.3-0.4,0.4-0.7
		c1-2.3,1.6-4.8,1.9-7.2c0.1-0.6,0.2-1.2,0.3-1.8c0-0.1,0-0.1,0.1-0.2c0.1-0.2,0.1-0.3,0.2-0.5c0.2-0.4,0.3-0.7,0.6-1.1
		c0.6-0.8,1.8-0.6,2.2,0.3c0.2,0.5,0.2,1,0.2,1.6c0,0.2,0,0.4,0,0.6c-0.1,0.1-0.1,0.2,0,0.4C31.5,16.9,31.5,17,31.5,17.1z"/>
	<path class="st1" d="M29.3,11.2c-1.1,0.1-1.9-0.4-2.5-1.3c-0.6-0.8-1-1.7-1.4-2.5c0,0-0.1,0-0.1,0c0,0.8,0,1.6,0,2.4
		c0,0.5-0.1,1.1-0.2,1.6c-0.1,0.4-0.3,0.8-0.8,0.8c-0.5,0-0.8-0.2-1-0.7c-0.3-0.6-0.4-1.3-0.4-1.9c-0.2-2.2-0.2-4.3,0-6.5
		c0-0.2,0.1-0.4,0.1-0.6C23,1.9,23.4,1.4,24,1.2c0.7-0.2,1.4-0.1,1.8,0.5c0.4,0.5,0.7,1.1,1,1.8c0.5,1.2,1,2.4,1.5,3.6
		c0.1,0.2,0.2,0.4,0.3,0.6c0.1-0.7,0.1-1.4,0-2c-0.1-1.3-0.2-2.6-0.4-3.9c0-0.4,0-0.8,0.1-1.2c0.2-0.7,0.9-0.8,1.4-0.3
		c0.3,0.3,0.5,0.8,0.6,1.2c0.2,0.7,0.3,1.3,0.4,2C30.9,4.9,31,6.2,31,7.6c0,0.7,0,1.4-0.2,2.1C30.6,10.5,30.1,11,29.3,11.2z"/>
	<path class="st1" d="M12.6,1.9c0.6,0.6,0.8,1.2,0.9,2c0.2,2.2-0.2,4.3-1.4,6.2c-0.7,1.1-1.7,1.8-3,2.2c-0.4,0-0.7,0-1.1,0
		c-0.6-0.1-0.9-0.4-0.8-1c0-0.1,0-0.2,0-0.3C6.6,9.5,6.5,8,6.5,6.4c0-1.2,0.1-2.4,0.4-3.6c0.1-0.4,0.2-0.7,0.4-1.1
		C7.7,1.1,8.6,1.1,9,1.7c0.2,0.2,0.2,0.2,0.5,0.1C10.6,1.2,11.6,1.2,12.6,1.9z M9.4,9.9C9.7,9.7,9.9,9.4,10,9.1
		c0.5-0.9,0.7-1.8,0.9-2.7c0.1-0.7,0.2-1.5,0-2.3c-0.1-0.5-0.3-0.6-0.8-0.4C9.6,4,9.2,4.3,9.2,5C9.2,6.6,9.2,8.2,9.4,9.9z"/>
	<path class="st2" d="M63.5,8.7c-0.4-0.2-0.8-0.2-1.2-0.4c-0.4-0.2-0.8-0.8-0.7-1.2c0.2-0.8,0.5-1.1,1.1-1.2
		c0.8-0.1,1.5,0.3,2.2,0.6c0.6,0.2,1.2,0.6,1.8,0.8c1.9,1.1,3.5,2.6,4.9,4.4c0.3,0.5,0.6,1,0.8,1.5c0,0.8-0.3,1.3-0.9,1.5
		c-0.6,0.2-1.2-0.1-1.6-0.8c-0.4-0.6-0.7-1.2-1.3-1.7C67.3,10.6,65.6,9.4,63.5,8.7z"/>
	<path class="st1" d="M9.5,33.3c0,0,0.1,0.1,0.1,0.1C9.5,33.4,9.5,33.3,9.5,33.3z"/>
	<path class="st1" d="M33.5,25.3c-0.5-1.6-0.4-3.2-0.4-4.8c0-0.9,0.1-1.8,0.3-2.6c0-0.2-0.1-0.4-0.2-0.5c-0.7-0.7-0.7-1.7,0.2-2.1
		c0.5-0.2,0.7-0.5,1-1c0.3-0.8,0.9-1.4,1.9-1.1c0.6,0.1,0.9,0.5,1,1c0.1,0.3,0.2,0.3,0.4,0.4c0.6,0,1.2,0.1,1.7,0.3
		c0.7,0.3,1,0.9,1,1.5c-0.1,0.6-0.5,1-1.2,1.1c-0.6,0.1-1.3,0.2-1.9,0.3c-0.2,0-0.3,0.1-0.3,0.3c0,0.4-0.2,0.9,0,1.2
		c0.2,0.3,0.7,0,1.1,0.1c0.1,0,0.3,0,0.4,0c0.7,0.1,1.1,0.4,1.2,1c0.1,0.7-0.1,1.2-0.6,1.6c-0.5,0.4-1.1,0.5-1.7,0.6
		c-0.5,0.1-0.7,0.4-0.5,0.9c0,0.4,0.1,0.9,0.2,1.3c0.2,0.9,0.5,1,1.3,0.6c0.5-0.3,1-0.6,1.6-0.8c0.8-0.3,1.2-0.2,1.7,0.5
		c0.2,0.6,0.1,1.1-0.3,1.6c-1.1,1.4-3.1,2.7-5.7,1.6c-0.5-0.3-1-0.7-1.3-1.2C33.9,26.4,33.7,25.9,33.5,25.3z"/>
	<path class="st1" d="M22.1,5.4C22,7.3,21.4,9,20,10.4c-1.4,1.3-3.4,1.4-4.7,0.2c-0.8-0.8-1.1-1.8-1.2-2.8c-0.2-1.4,0-2.9,0.7-4.2
		C15.3,2.8,16,2.3,17,2.3c0.1,0,0.2,0,0.2,0C18,1.3,19,1.5,20,1.8c1.1,0.4,1.7,1.3,1.9,2.4C22.1,4.6,22.1,5,22.1,5.4z M19.6,5.1
		c0-0.5,0-0.8-0.1-1.2c-0.3-0.7-1.2-0.9-1.7-0.4c-0.4,0.3-0.6,0.7-0.7,1.1c-0.5,1.2-0.6,2.5-0.3,3.8c0.2,0.8,0.6,0.9,1.3,0.4
		c0.4-0.3,0.6-0.7,0.9-1.1C19.4,6.9,19.6,6,19.6,5.1z"/>
	<path class="st1" d="M28.5,15.5c0,0.1,0,0.1-0.1,0.2C28.4,15.6,28.5,15.6,28.5,15.5z"/>
	<path class="st1" d="M55.6,13.3c0.6-0.8,1.5-1.3,2.5-1.4c0.4,0,0.8,0.1,1-0.5c0-0.1,0.1-0.1,0.1-0.2c0,0,0,0,0,0
		c0,0,0.1-0.1,0.1-0.1c0.1,0,0.2-0.1,0.3-0.1c0.4,0,0.3,0.3,0.3,0.5c-0.2,1.2-0.5,2.3-0.7,3.5c-0.3,1.5-0.7,3.1-1,4.6
		c-0.1,0.5-0.1,1,0.4,1.4c0.4,0.3,0.9,0.3,1.5-0.1c0.2-0.1,0.5-0.2,0.7-0.3c1.8-0.9,3.5-1.9,5.3-2.8c0.2-0.1,0.4-0.3,0.5,0.1
		c0,0.2,0,0.4,0,0.6c0,0.1,0,0.1,0,0.2c-0.1,0.4-0.1,0.8-0.2,1.2c0,0.1,0,0.1-0.1,0.2c0,0.2-0.1,0.3-0.1,0.5c-0.3,0.7-0.5,1.4-0.9,2
		c-1.5,2.7-3.4,4.6-6.7,4.4c-0.2,0-0.5-0.1-0.7-0.2c-1.7-0.5-2.8-1.7-3.4-3.3c-0.7-1.7-0.8-3.4-0.6-5.1
		C54.1,16.4,54.5,14.8,55.6,13.3z"/>
	<path class="st2" d="M61.1,10.3c0-0.1,0.1-0.3,0.1-0.4c0.1-0.6,0.6-0.9,1.2-0.6c0.2,0.1,0.3,0.2,0.5,0.2c0.4,0.1,0.8,0.2,1.2,0.4
		c1.7,0.6,3,1.7,4.2,3c0.3,0.5,0.6,0.9,0.9,1.4c0.3,0.6,0.2,0.9-0.4,1.2c-0.6,0.3-1.1,0.6-1.7,0.9c-0.4,0.2-0.7,0.4-1.1,0.6
		c-1.9,1.1-3.9,2.1-5.8,3.2c-0.1,0-0.2,0.1-0.3,0.1c-0.2,0.1-0.4,0.3-0.7,0.1c-0.2-0.2-0.1-0.4-0.1-0.7c0-0.1,0-0.1,0-0.2
		c0.3-1.6,0.6-3.1,0.9-4.7C60.6,13.3,60.9,11.8,61.1,10.3z M63,13.9c0.7,0,1.4-0.6,1.4-1.2c0-0.5-0.6-1.1-1.2-1.2
		c-0.7,0-1.3,0.6-1.4,1.2C61.8,13.2,62.5,13.9,63,13.9z M62.7,17.4c0.7,0,1.2-0.5,1.2-1.2c0-0.6-0.4-1-1-1c-0.7,0-1.3,0.5-1.2,1.3
		C61.7,17,62.1,17.4,62.7,17.4z M66.8,15.2c0.6,0,1-0.4,1-1.1c0-0.5-0.4-0.9-0.9-0.9c-0.6,0-1,0.5-1,1.1
		C65.9,14.9,66.2,15.2,66.8,15.2z M60.7,17.8c-0.2,0-0.3,0.1-0.3,0.3c0,0.2,0.1,0.3,0.3,0.3c0.2,0,0.3-0.1,0.3-0.3
		C61.1,17.9,60.9,17.8,60.7,17.8z M65.2,11.6c-0.2,0-0.3,0.1-0.3,0.3c0,0.2,0.1,0.3,0.3,0.3c0.2,0,0.3-0.1,0.3-0.3
		C65.5,11.7,65.4,11.6,65.2,11.6z"/>
	<path class="st1" d="M66.4,20c0-0.1,0-0.1,0.1-0.2C66.4,19.9,66.4,19.9,66.4,20z"/>
	<path class="st1" d="M66.7,18.6c0-0.1,0-0.1,0-0.2C66.7,18.5,66.7,18.5,66.7,18.6z"/>
	<path class="st1" d="M59.5,11.2c0,0-0.1,0.1-0.1,0.1C59.4,11.2,59.4,11.2,59.5,11.2z"/>
</g>
</svg>
