<?xml version="1.0" encoding="UTF-8"?>
<svg id="Capa_2" data-name="Capa 2" xmlns="http://www.w3.org/2000/svg" viewBox="0 0 217.11 362.1">
  <g id="Capa_1-2" data-name="Capa 1">
    <path d="M0,181.25c-.02-10.8,3.83-19.8,11.67-27.33,10.44-10.03,20.55-20.4,30.87-30.56,22.22-21.88,44.48-43.71,66.71-65.58,16.13-15.88,32.24-31.78,48.34-47.69,15.06-14.87,39.96-13.07,52.46,3.81,10.36,13.99,9.11,33.12-3.22,45.38-18.92,18.8-38,37.44-56.98,56.17-10.03,9.9-19.98,19.87-30.01,29.77-11.1,10.95-22.25,21.84-33.38,32.77-.39,.39-.71,.86-1.14,1.2-1.76,1.42-1.38,2.59,.12,4.05,8.91,8.66,17.75,17.39,26.6,26.11,21.71,21.38,43.4,42.78,65.11,64.16,9.92,9.78,20,19.4,29.72,29.37,9.75,10,12.62,22.07,8.28,35.28-4.38,13.32-13.96,21.29-27.86,23.47-11.54,1.81-21.59-1.72-29.93-9.9-14.86-14.57-29.7-29.16-44.52-43.77-11.94-11.78-23.83-23.62-35.77-35.4-21.46-21.18-42.85-42.43-64.47-63.44-6.43-6.25-10.88-13.3-12.19-22.2-.27-1.87-.28-3.78-.41-5.67Z"/>
  </g>
</svg>