<?xml version="1.0" standalone="no"?>
<!DOCTYPE svg PUBLIC "-//W3C//DTD SVG 20010904//EN"
 "http://www.w3.org/TR/2001/REC-SVG-20010904/DTD/svg10.dtd">
<svg version="1.0" xmlns="http://www.w3.org/2000/svg"
 width="951.000000pt" height="896.000000pt" viewBox="0 0 951.000000 896.000000"
 preserveAspectRatio="xMidYMid meet">

<g transform="translate(0.000000,896.000000) scale(0.100000,-0.100000)"
fill="#000000" stroke="none">
<path d="M6088 7541 c67 -18 55 -23 -93 -41 -115 -13 -244 -37 -270 -49 -11
-5 -63 -22 -115 -36 -52 -15 -100 -31 -106 -36 -6 -5 -42 -20 -80 -35 -38 -14
-76 -32 -84 -39 -8 -8 -37 -23 -63 -34 -27 -12 -55 -28 -64 -36 -8 -9 -28 -22
-45 -31 -55 -29 -180 -128 -278 -224 -70 -67 -190 -204 -190 -216 0 -3 -13
-22 -30 -41 -16 -18 -30 -37 -30 -41 0 -4 -9 -13 -20 -20 -18 -11 -19 -10 -10
16 l10 27 -19 -25 c-64 -81 -183 -334 -221 -472 -18 -64 -13 -89 9 -50 14 24
14 18 -9 -89 -28 -139 -40 -249 -40 -385 0 -156 34 -492 60 -595 22 -85 105
-285 123 -296 6 -4 8 -1 4 8 -27 64 -67 173 -67 182 0 15 24 -31 57 -108 14
-33 28 -62 32 -65 3 -3 17 -25 30 -50 14 -25 35 -59 48 -76 13 -17 23 -35 23
-41 0 -5 10 -18 21 -29 12 -10 -2 19 -31 66 -195 310 -291 676 -277 1054 5
134 32 334 44 323 2 -3 -2 -40 -11 -83 -20 -112 -30 -221 -19 -209 6 6 18 42
28 80 10 39 24 81 31 95 l12 25 6 -25 c3 -14 7 -108 10 -210 5 -190 20 -303
61 -462 25 -95 16 -107 -24 -33 -30 57 -51 59 -51 6 0 -89 59 -290 122 -416
38 -74 109 -185 131 -203 15 -13 15 -10 0 27 -24 60 -8 62 39 6 74 -89 276
-290 358 -356 53 -43 77 -69 74 -80 -6 -20 60 -81 156 -145 40 -27 68 -50 63
-51 -22 -8 -185 79 -293 155 -13 9 -21 11 -17 5 15 -24 203 -142 314 -198 308
-153 681 -222 993 -185 594 72 1093 373 1407 849 111 168 214 415 259 621 16
70 19 128 19 335 -1 233 -2 258 -27 370 -32 143 -79 311 -97 343 -7 13 -21 49
-32 80 -11 30 -25 63 -32 71 -7 9 -22 36 -32 61 -10 25 -26 54 -35 65 -9 11
-26 37 -38 57 -12 21 -40 63 -64 94 -67 88 -75 103 -24 49 41 -44 94 -111 149
-185 35 -48 -26 55 -72 120 -90 130 -192 231 -336 331 -33 23 -62 45 -65 49
-3 4 -43 32 -90 64 -47 31 -90 60 -96 65 -6 5 -36 22 -65 36 -30 15 -56 31
-59 34 -3 4 -39 20 -80 35 -41 16 -77 33 -80 36 -3 4 -50 20 -105 35 -55 14
-104 31 -109 36 -6 5 -21 10 -35 10 -24 2 -24 2 -3 6 12 2 22 8 22 13 0 11
-46 24 -165 45 -94 17 -477 32 -417 16z m-539 -235 c-2 -2 -78 -45 -168 -96
-150 -83 -289 -173 -415 -267 -68 -51 -45 -12 31 54 134 115 333 236 478 290
57 21 83 28 74 19z m1436 -59 c67 -20 142 -50 189 -77 112 -64 269 -194 382
-315 53 -57 102 -103 107 -102 31 6 186 -249 242 -398 44 -116 105 -372 121
-509 21 -173 14 -363 -15 -421 l-20 -40 -1 88 c0 79 -14 210 -26 246 -3 10 -8
10 -18 2 -11 -9 -15 2 -20 61 -18 185 -43 307 -107 510 -21 69 -39 130 -39
135 1 4 19 -12 41 -37 l40 -45 -21 55 c-68 176 -265 427 -413 525 -63 42 -81
40 -54 -6 32 -57 17 -51 -75 29 -115 98 -212 168 -351 251 -152 92 -144 101
38 48z m-1565 -98 c-63 -33 -159 -90 -212 -125 -54 -35 -98 -60 -98 -56 0 15
117 104 200 152 61 36 187 89 210 90 8 0 -37 -28 -100 -61z m1180 -122 c287
-69 513 -197 710 -403 82 -85 180 -211 180 -231 0 -5 -73 -39 -161 -76 l-161
-68 -97 93 c-53 51 -121 110 -151 129 -327 215 -804 259 -1166 108 -205 -86
-395 -269 -490 -473 -64 -140 -79 -219 -79 -426 0 -219 15 -292 94 -455 165
-338 507 -525 961 -525 349 0 622 110 843 339 l85 88 154 -99 c84 -54 154
-102 156 -107 4 -13 -156 -198 -224 -258 -254 -224 -504 -324 -886 -355 -240
-18 -463 7 -675 77 -200 67 -348 160 -509 319 -250 249 -364 514 -389 906 -6
104 5 273 26 380 104 528 544 950 1096 1050 93 17 142 19 343 16 208 -4 247
-7 340 -29z m-2183 -949 c-3 -8 -6 -5 -6 6 -1 11 2 17 5 13 3 -3 4 -12 1 -19z"/>
<path d="M2063 5252 c12 -5 -14 -12 -76 -20 -170 -23 -342 -87 -482 -181 -76
-50 -197 -165 -264 -251 -24 -30 -48 -55 -54 -55 -27 0 -143 -260 -133 -299 3
-12 -1 -62 -9 -111 -8 -50 -15 -122 -15 -161 0 -94 18 -275 35 -349 14 -60 60
-175 70 -175 3 0 1 9 -5 20 -6 11 -8 32 -5 47 5 24 4 25 -5 8 -10 -19 -10 -18
-6 3 2 13 -4 48 -15 79 -53 155 -65 362 -26 467 l22 61 7 -135 c6 -118 15
-181 43 -305 l7 -30 -24 35 -23 35 -3 -39 c-3 -39 28 -157 55 -210 8 -16 16
-40 18 -53 1 -14 8 -30 15 -36 10 -9 11 -9 5 3 -6 12 -5 13 5 3 7 -7 14 -22
15 -34 1 -12 9 -23 18 -25 13 -2 14 2 7 22 -15 40 2 27 65 -47 33 -38 93 -98
133 -132 41 -34 78 -72 83 -84 7 -19 68 -70 145 -120 37 -25 -82 32 -136 65
-44 26 -49 28 -25 7 48 -41 243 -133 335 -159 327 -92 677 -26 955 181 133 99
227 208 322 372 24 42 41 65 38 51 -34 -163 -30 -399 10 -575 14 -60 60 -175
70 -175 3 0 1 9 -5 20 -6 11 -8 32 -5 47 5 24 4 25 -5 8 -10 -19 -10 -18 -6 3
2 13 -4 48 -15 79 -53 155 -65 362 -26 467 l22 61 7 -135 c6 -118 15 -181 43
-305 l7 -30 -24 35 -23 35 -3 -39 c-3 -39 28 -157 55 -210 8 -16 16 -40 18
-53 1 -14 8 -30 15 -36 10 -9 11 -9 5 3 -6 12 -5 13 5 3 7 -7 14 -22 15 -34 1
-12 9 -23 18 -25 13 -2 14 2 7 22 -15 40 2 27 65 -47 33 -38 93 -98 133 -132
41 -34 78 -72 83 -84 7 -19 68 -70 145 -120 37 -25 -82 32 -136 65 -44 26 -49
28 -25 7 48 -41 243 -133 335 -159 111 -31 267 -50 350 -41 187 18 362 69 457
132 32 22 90 58 128 81 79 45 206 171 272 267 55 82 108 190 138 281 35 108
53 323 36 448 -23 179 -81 338 -176 486 l-36 55 37 -40 c36 -38 37 -39 17 -7
-11 18 -37 54 -59 80 -21 26 -38 50 -37 53 1 4 -8 15 -20 25 -22 19 -22 19 -7
-2 8 -11 1 -4 -17 15 -18 20 -38 36 -45 36 -7 0 -51 28 -98 61 -106 77 -177
113 -302 155 -54 18 -93 36 -87 40 21 13 -95 31 -221 35 -69 2 -117 1 -107 -4
12 -5 -14 -12 -76 -20 -170 -23 -342 -87 -482 -181 -76 -50 -196 -165 -264
-251 -24 -30 -48 -54 -52 -53 -5 2 -19 -15 -31 -37 -13 -22 -25 -40 -28 -40
-3 0 -4 50 -2 110 9 248 -54 471 -193 685 l-46 70 41 -45 42 -45 -34 49 c-44
64 -122 135 -247 224 -123 88 -186 120 -313 163 -54 18 -93 36 -87 40 21 13
-95 31 -221 35 -69 2 -117 1 -107 -4z m-418 -188 c-55 -30 -137 -81 -182 -114
-97 -69 -111 -64 -20 8 73 58 146 103 225 137 92 39 84 28 -23 -31z m954 16
c35 -10 95 -39 132 -64 80 -54 262 -222 302 -280 103 -150 168 -379 166 -589
-1 -150 -13 -190 -23 -77 -8 94 -14 122 -25 116 -4 -3 -13 39 -20 92 -7 53
-27 147 -45 209 -18 62 -31 113 -28 113 2 0 13 -10 23 -22 l20 -23 -15 37
c-34 86 -132 216 -210 279 -55 44 -70 49 -60 17 6 -20 4 -19 -27 6 -70 57
-188 142 -240 173 -63 38 -46 43 50 13z m-947 -60 c-41 -22 -93 -54 -117 -70
-59 -41 -67 -38 -14 5 44 36 172 105 193 105 6 0 -22 -18 -62 -40z m2093 -656
c-55 -30 -137 -81 -182 -114 -97 -69 -111 -64 -20 8 73 58 146 103 225 137 92
39 84 28 -23 -31z m954 16 c35 -10 95 -39 132 -64 80 -54 262 -222 302 -280
103 -150 168 -379 166 -589 -1 -150 -13 -190 -23 -77 -8 94 -14 122 -25 116
-4 -3 -13 39 -20 92 -7 53 -27 147 -45 209 -18 62 -31 113 -28 113 2 0 13 -10
23 -22 l20 -23 -15 37 c-34 86 -132 216 -210 279 -55 44 -70 49 -60 17 6 -20
4 -19 -27 6 -70 57 -188 142 -240 173 -63 38 -46 43 50 13z m-947 -60 c-41
-22 -93 -54 -117 -70 -59 -41 -67 -38 -14 5 44 36 172 105 193 105 6 0 -22
-18 -62 -40z m-2695 -42 c-3 -8 -6 -5 -6 6 -1 11 2 17 5 13 3 -3 4 -12 1 -19z
m3944 -35 c13 -16 12 -17 -3 -4 -17 13 -22 21 -14 21 2 0 10 -8 17 -17z
m-1844 -665 c-3 -8 -6 -5 -6 6 -1 11 2 17 5 13 3 -3 4 -12 1 -19z"/>
<path d="M4690 4586 c0 -2 8 -10 18 -17 15 -13 16 -12 3 4 -13 16 -21 21 -21
13z"/>
<path d="M4740 4520 c12 -16 24 -30 26 -30 3 0 -4 14 -16 30 -12 17 -24 30
-26 30 -3 0 4 -13 16 -30z"/>
<path d="M1130 3706 c0 -11 30 -66 36 -66 2 0 -3 15 -12 33 -19 36 -24 44 -24
33z"/>
<path d="M1445 3300 c10 -11 20 -20 23 -20 3 0 -3 9 -13 20 -10 11 -20 20 -23
20 -3 0 3 -9 13 -20z"/>
<path d="M3230 3006 c0 -11 30 -66 36 -66 2 0 -3 15 -12 33 -19 36 -24 44 -24
33z"/>
<path d="M5333 2692 c12 -5 -14 -12 -76 -20 -170 -23 -342 -87 -482 -181 -76
-50 -197 -165 -264 -251 -24 -30 -48 -55 -54 -55 -27 0 -143 -260 -133 -299 3
-12 -1 -62 -9 -111 -8 -50 -15 -122 -15 -161 0 -94 18 -275 35 -349 14 -60 60
-175 70 -175 3 0 1 9 -5 20 -6 11 -8 32 -5 47 5 24 4 25 -5 8 -10 -19 -10 -18
-6 3 2 13 -4 48 -15 79 -53 155 -65 362 -26 467 l22 61 7 -135 c6 -118 15
-181 43 -305 l7 -30 -24 35 -23 35 -3 -39 c-3 -39 28 -157 55 -210 8 -16 16
-40 18 -53 1 -14 8 -30 15 -36 10 -9 11 -9 5 3 -6 12 -5 13 5 3 7 -7 14 -22
15 -34 1 -12 9 -23 18 -25 13 -2 14 2 7 22 -15 40 2 27 65 -47 33 -38 93 -98
133 -132 41 -34 78 -72 83 -84 7 -19 68 -70 145 -120 37 -25 -82 32 -136 65
-44 26 -49 28 -25 7 48 -41 243 -133 335 -159 327 -92 677 -26 955 181 196
146 345 362 405 588 40 152 38 389 -7 545 -43 153 -79 233 -158 355 l-46 70
41 -45 42 -45 -34 49 c-44 64 -122 135 -247 224 -123 88 -186 120 -313 163
-54 18 -93 36 -87 40 21 13 -95 31 -221 35 -69 2 -117 1 -107 -4z m-418 -188
c-55 -30 -137 -81 -182 -114 -97 -69 -111 -64 -20 8 73 58 146 103 225 137 92
39 84 28 -23 -31z m954 16 c35 -10 95 -39 132 -64 80 -54 262 -222 302 -280
103 -150 168 -379 166 -589 -1 -150 -13 -190 -23 -77 -8 94 -14 122 -25 116
-4 -3 -13 39 -20 92 -7 53 -27 147 -45 209 -18 62 -31 113 -28 113 2 0 13 -10
23 -22 l20 -23 -15 37 c-34 86 -132 216 -210 279 -55 44 -70 49 -60 17 6 -20
4 -19 -27 6 -70 57 -188 142 -240 173 -63 38 -46 43 50 13z m-947 -60 c-41
-22 -93 -54 -117 -70 -59 -41 -67 -38 -14 5 44 36 172 105 193 105 6 0 -22
-18 -62 -40z m-595 -742 c-3 -8 -6 -5 -6 6 -1 11 2 17 5 13 3 -3 4 -12 1 -19z"/>
<path d="M3545 2600 c10 -11 20 -20 23 -20 3 0 -3 9 -13 20 -10 11 -20 20 -23
20 -3 0 3 -9 13 -20z"/>
<path d="M4400 1146 c0 -11 30 -66 36 -66 2 0 -3 15 -12 33 -19 36 -24 44 -24
33z"/>
<path d="M4715 740 c10 -11 20 -20 23 -20 3 0 -3 9 -13 20 -10 11 -20 20 -23
20 -3 0 3 -9 13 -20z"/>
</g>
</svg>
